<svg width="16" height="19" viewBox="0 0 16 19" fill="none" xmlns="http://www.w3.org/2000/svg">
<path d="M14.9758 17.9613C14.9424 17.5341 14.9504 17.1048 14.9996 16.6792C15.0411 16.4744 15.296 16.3201 15.4768 16.142C15.6457 16.3171 15.9332 16.4803 15.9569 16.6762C16.0049 17.2428 16.0128 17.812 15.9807 18.3797C15.9629 18.9733 15.5449 19 15.0914 19C11.9298 19 8.76814 19 5.60649 19C4.59279 19 3.57909 19 2.56835 19C1.02408 18.9792 0.0133382 17.985 0.0103742 16.4328C-0.00345805 11.807 -0.00345805 7.18114 0.0103742 2.55529C0.0103742 0.997185 1.02407 0.00296782 2.57723 0C6.75061 0 10.924 0 15.0974 0C15.7909 0 15.9866 0.278962 15.9866 0.931883C15.9688 5.35988 15.9866 9.78787 15.9866 14.2159C15.9866 15.0795 15.8858 15.1745 14.9818 15.1745H3.04259C2.74474 15.166 2.44679 15.1878 2.15337 15.2398C1.82285 15.3003 1.52532 15.4785 1.31561 15.7413C1.1059 16.0042 0.998157 16.3341 1.01222 16.6703C1.01815 17.0101 1.15441 17.3346 1.39279 17.5766C1.63117 17.8186 1.95337 17.9596 2.29267 17.9702C6.50162 17.9761 10.6958 17.9613 14.9758 17.9613ZM2.77878 7.48781C2.77878 9.07065 2.77878 10.6535 2.77878 12.2363C2.77878 12.6043 2.74026 13.0851 3.27379 13.0198C3.46349 12.9961 3.73913 12.542 3.7421 12.2809C3.77569 9.09342 3.77569 5.90497 3.7421 2.71555C3.7421 2.45141 3.47237 1.99141 3.28267 1.9647C2.761 1.89644 2.77878 2.36832 2.77878 2.74524C2.77878 4.3261 2.77878 5.90695 2.77878 7.48781Z" fill="white"/>
</svg>
