<svg width="20" height="20" viewBox="0 0 20 20" fill="none" xmlns="http://www.w3.org/2000/svg">
<path d="M15.6167 12.4949H9.2449C8.48013 12.4949 8.12397 12.8498 8.12275 13.6097C8.12275 14.4232 8.13495 15.2356 8.11666 16.0491C8.08001 17.1139 7.62599 18.1215 6.85266 18.8543C6.07933 19.5871 5.04876 19.9863 3.98357 19.9656C2.91839 19.945 1.90408 19.5061 1.15975 18.7439C0.415415 17.9816 0.000811441 16.9572 0.00548876 15.8918C-0.00182959 12.1228 -0.00182959 8.3539 0.00548876 4.58495C0.00548876 3.61893 0.00548876 2.65412 0.00548876 1.68932C0.00548876 0.66597 0.658042 0.00121972 1.67529 0C5.7695 0 9.86412 0 13.9591 0C14.9654 0 15.6167 0.657432 15.618 1.66248C15.618 5.17773 15.618 8.69298 15.618 12.2082L15.6167 12.4949ZM11.8624 7.51594H3.78176V9.34553H11.8624V7.51594ZM3.77565 5.60464H11.8612V3.77505H3.77565V5.60464Z" fill="#346C4E"/>
<path d="M8.41306 19.9608C9.10342 19.1802 9.64498 18.3325 9.80842 17.3335C9.96698 16.3699 9.9926 15.3819 10.0804 14.3708H19.1344C19.8126 14.3708 20.0102 14.5586 19.9882 15.2441C19.9748 15.771 19.9882 16.3077 19.8748 16.8188C19.6933 17.698 19.2186 18.4895 18.5286 19.0638C17.8386 19.6382 16.9741 19.9613 16.0766 19.9803C13.5566 20.0169 11.0367 19.9913 8.51429 19.9913C8.47976 19.9839 8.4459 19.9737 8.41306 19.9608V19.9608Z" fill="#346C4E"/>
</svg>
