<svg xmlns="http://www.w3.org/2000/svg" xmlns:xlink="http://www.w3.org/1999/xlink" viewBox="0 0 48 48"><defs><clipPath id="a"><path d="M5.0494,42.9506C1.3663,39.2675,0,33.2675,0,24S1.3663,8.7325,5.0494,5.0494,14.7325,0,24,0,39.2675,1.3663,42.9506,5.0494,48,14.7325,48,24s-1.3663,15.2675-5.0494,18.9506S33.2675,48,24,48,8.7325,46.6337,5.0494,42.9506Z" fill="none"/></clipPath><clipPath id="b"><path d="M35.6509,38.4873A49.8258,49.8258,0,0,0,48,36.948V23.9967a16.23,16.23,0,0,1-10.4945,4.1488c-1.0185-3.9368-1.7088-5.2908-3.2446-6.7658a9.3541,9.3541,0,0,0-6.6391-2.7033A9.47,9.47,0,0,0,23.43,36.67C26.3652,38.087,32.6617,38.4873,35.6509,38.4873Z" fill="none"/></clipPath><radialGradient id="c" cx="3776.7753" cy="-277.422" r="1.0751" gradientTransform="translate(-118537.1822 8743.6136) scale(31.3922 31.3922)" gradientUnits="userSpaceOnUse"><stop offset="0" stop-color="#fff266"/><stop offset="0.165" stop-color="#ffa866"/><stop offset="0.3766" stop-color="#ff7066"/><stop offset="0.6562" stop-color="#ff40c0"/></radialGradient></defs><title>icon-breaker</title><g clip-path="url(#a)"><g clip-path="url(#b)"><rect width="48" height="48" fill="url(#c)"/><path d="M16.4727,0,23.04,31.2218,23.3673,0h.2618l.3491,31.2218L30.5455,0h.24l-5.891,31.3964L38.2473.1309a.6371.6371,0,0,1,.1963.0436L25.7673,31.7673,44.9455,3.7527c.0436.0437.0872.1091.1309.1528L26.5527,32.2909,48,11.3018v.4146L27.2073,32.9673,48,19.3964v.48L27.7309,33.7309,48,25.5927v.5018L28.1018,34.6036,48,30.8727v.5018L28.2764,35.52,48,35.7382V36.24l-19.7236.2182,18.9818,3.9927c-.0655.1746-.1309.3273-.1964.48L28.08,37.3745l16.6254,7.091a3.9228,3.9228,0,0,1-.4363.4145l-16.56-6.6545,13.0036,8.9018c-.24.0872-.4582.1745-.6982.2618L27.1854,39.0109l8.771,8.9455h-.96l-8.4655-8.2909,5.4109,8.2909h-.8727l-5.3237-7.7673L28.8873,48h-.8291l-3.1637-7.3964L26.2909,48h-.7854l-1.5273-7.2218L23.8909,48h-.7854l-.0873-7.2218L21.5127,48h-.7854l1.3963-7.3964L18.9382,48h-.8291l3.12-7.7673L15.9273,48h-.8728l5.411-8.2909L11.9782,48h-.3927a4.9351,4.9351,0,0,1-.5673-.0218l8.7491-8.9455-12.48,8.1382c-.2182-.0873-.4582-.1964-.6764-.2836l12.6109-8.64-15.84,6.3709c-.1527-.1527-.2836-.2837-.4145-.4364l15.9054-6.7854L.8291,40.7782c-.0655-.1746-.1309-.3491-.1964-.5018L18.6982,36.48,0,36.2618v-.5236l18.72-.1964L0,31.5927v-.5236l18.9164,3.5564L0,26.5309v-.5236l19.2655,7.7454L0,20.5527v-.5236L19.7891,32.9455,0,12.72v-.4582L20.4655,32.2691,2.3782,4.5818a.5884.5884,0,0,1,.1527-.1745l18.72,27.3818L8.64.3927A.6377.6377,0,0,1,8.8364.3491L22.1018,31.4182,16.2109,0Z" fill="#ffdb66" fill-opacity="0.1"/></g><path d="M48,36.8945C47.9564,43.0473,47.9564,48,47.9564,48H28.2327c-.0218-.0218-.0436-.0436-.0436-.0655a47.6953,47.6953,0,0,1-9.5564-16.7563,9.55,9.55,0,0,0,7.1128,6.2836,44.5705,44.5705,0,0,0,9.9054,1.0255A47.2082,47.2082,0,0,0,48,36.8945Z" fill="#0069ff"/><path d="M28.2109,48s-18.7478-.0436-19.5927-.0436c.1527-1.1564.3491-2.5746.5673-3.7091a47.804,47.804,0,0,1,11.2363-22.32,9.4954,9.4954,0,0,0-2.3345,6.24A9.3065,9.3065,0,0,0,18.5891,31.2a48.23,48.23,0,0,0,9.5564,16.7564C28.1891,47.9564,28.1891,47.9782,28.2109,48Z" fill="#5c9dff"/><path d="M8.6182,47.9564H0V21.9927a48.1438,48.1438,0,0,1,29.4764-3.1418,10.2821,10.2821,0,0,0-1.8546-.1745,9.5027,9.5027,0,0,0-7.1563,3.2509A47.71,47.71,0,0,0,9.2073,44.2691C8.9673,45.3818,8.7709,46.7782,8.6182,47.9564Z" fill="#b2d2ff"/><path d="M19.6145,17.8255a47.4064,47.4064,0,0,1,9.8619,1.0254,9.5409,9.5409,0,0,1,7.1127,6.2182l.1309.3927-.1309-.3927A48.21,48.21,0,0,0,17.4545,0H0V21.9927A47.8208,47.8208,0,0,1,19.6145,17.8255Z" fill="#d9e9ff"/><path d="M48,23.9345V0H17.4545A48.1033,48.1033,0,0,1,36.72,25.44c.24.7636.5455,1.8545.7855,2.7055A16.049,16.049,0,0,0,48,23.9345Z" fill="#fff"/><path d="M21.648,22.9824a7.2794,7.2794,0,0,0-1.93,5.1744,7.1127,7.1127,0,0,0,.4128,2.5248A7.7723,7.7723,0,0,0,22.3776,34.07a7.9623,7.9623,0,0,0,3.6576,1.8336h.01a43.2245,43.2245,0,0,0,9.5712.9984A45.1748,45.1748,0,0,0,48,35.232v3.2832a49.9285,49.9285,0,0,1-12.384,1.584,46.9067,46.9067,0,0,1-10.224-1.0656,9.9368,9.9368,0,0,1-1.92-.6048,45.4633,45.4633,0,0,0,5.904,8.4576c.336.3744.672.7488,1.008,1.1136H26.1216a50.106,50.106,0,0,1-9.024-16.2816v-.01c0-.01-.01-.01-.01-.0192a11.5587,11.5587,0,0,1-.4512-1.9872,45.45,45.45,0,0,0-5.8656,14.87c-.23,1.1232-.4224,2.2656-.5568,3.4272H6.9984c.1536-1.392.3648-2.7552.6336-4.07a50.164,50.164,0,0,1,11.6352-23.088,11.3627,11.3627,0,0,1,1.488-1.392c-.384-.01-.7584-.0288-1.1424-.0288A45.3928,45.3928,0,0,0,0,23.7408V20.2752a49.8469,49.8469,0,0,1,19.6128-4.0608A50.5553,50.5553,0,0,1,29.77,17.27h.01a11.0452,11.0452,0,0,1,1.9584.6048A46.5442,46.5442,0,0,0,14.41,0h5.8368a49.2013,49.2013,0,0,1,5.5488,4.7232A49.4984,49.4984,0,0,1,38.2368,24.96c.144.432.2976.97.4512,1.5168A14.5681,14.5681,0,0,0,48,21.6672v4.3584A17.6493,17.6493,0,0,1,37.5264,29.75l-1.2576.0288L35.9424,28.56c-.2208-.8448-.5184-1.9008-.7488-2.63l-.0288-.0576a7.9444,7.9444,0,0,0-6.01-5.4624,7.4416,7.4416,0,0,0-1.536-.1536,7.9053,7.9053,0,0,0-5.952,2.6976l-.01.01v.01A.01.01,0,0,0,21.648,22.9824Z" fill="#003dad"/></g></svg>