<svg viewBox="0 0 48 48" xmlns="http://www.w3.org/2000/svg"><path d="m24 47.5c-9.6 0-15.16-1.5-18.6-4.9s-4.9-9-4.9-18.6 1.5-15.16 4.9-18.6 9-4.9 18.6-4.9 15.16 1.5 18.6 4.9 4.9 9 4.9 18.6-1.5 15.16-4.9 18.6-9 4.9-18.6 4.9z" fill="#fff" stroke="#e5e5e5"/><g fill="none" stroke-linecap="round" stroke-width="4"><g stroke="#fab908"><path d="m24 10.25v2"/><path d="m24 35.75v2"/><path d="m24 18.25v11.5"/></g><path d="m17 16.5v7" stroke="#ea4335"/><path d="m17 29.5v2" stroke="#ea4335"/><path d="m31 24.5v7" stroke="#34a853"/><path d="m31 18.5v-2" stroke="#34a853"/><path d="m38 23v2" stroke="#4285f4"/><path d="m10 23v2" stroke="#0066d9"/></g></svg>