<svg xmlns="http://www.w3.org/2000/svg" viewBox="0 0 48 48"><title>icon-radiopublic</title><path d="M5.0494,42.9506C1.3663,39.2675,0,33.2675,0,24S1.3663,8.7325,5.0494,5.0494,14.7325,0,24,0,39.2675,1.3663,42.9506,5.0494,48,14.7325,48,24s-1.3663,15.2675-5.0494,18.9506S33.2675,48,24,48,8.7325,46.6337,5.0494,42.9506Z" fill="#cf2327"/><path d="M29.4122,20.1743a3.1539,3.1539,0,0,1,1.0174-.1665c.272.0593.34.3974.3062.6341.0126,1.0531.0006,2.1062.0063,3.1593a.9461.9461,0,0,1-.2309.7929c-.2664.3189-.7187.2813-1.0844.3668C29.39,23.3656,29.4147,21.77,29.4122,20.1743ZM17.2547,16.28a2.6841,2.6841,0,0,1,1.33-.1486,1.9851,1.9851,0,0,1,.1348.9243c0,.8388.0145,1.6776-.0089,2.5163a.8961.8961,0,0,1-.4827.7578,4.6672,4.6672,0,0,1-.944.23C17.2326,19.1333,17.2807,17.7064,17.2547,16.28Zm.89-2.8736a25.2389,25.2389,0,0,1-3.8992.72q-.0331.7548-.024,1.5111c.0158,5.2126-.0133,10.4247.0145,15.6373a17.9009,17.9009,0,0,0,3.035-.5249q-.02-3.657-.0032-7.3151a3.9569,3.9569,0,0,1,1.1458-.2016c.2815.1161.31.4625.298.7259.0284,1.7905-.0184,3.5823.0132,5.3728a2.3,2.3,0,0,0,.2455,1.055,14.6686,14.6686,0,0,1,3.0989-.52,3.2073,3.2073,0,0,1-.2455-1.1118c-.0247-1.9041.0076-3.8088-.0076-5.7128a3.131,3.131,0,0,0-.2467-1.41,1.8821,1.8821,0,0,0-1.0111-.835,3.2618,3.2618,0,0,0,.8162-.8209,3.8655,3.8655,0,0,0,.5112-2.3588,12.6133,12.6133,0,0,0-.2284-3.2825,1.72,1.72,0,0,0-1.066-1.122A4.51,4.51,0,0,0,18.1449,13.4065Zm12.67,3.7749a38.5547,38.5547,0,0,1-4.4364.8892c-.0139,5.6949-.0019,11.39-.0057,17.0847l-.0044.0561c1.0167-.1116,2.0164-.331,3.021-.52.0582-2.3053-.01-4.6125.03-6.919a12.4686,12.4686,0,0,0,2.2245-.5671,3.4215,3.4215,0,0,0,1.4975-1.1067,3.8955,3.8955,0,0,0,.67-1.9448c.0633-1.159.0083-2.3206.03-3.4809a7.9466,7.9466,0,0,0-.1968-2.348,1.85,1.85,0,0,0-.7636-1.0276A3.13,3.13,0,0,0,30.8149,17.1814ZM22.49,8.1556a8.0856,8.0856,0,0,1,3.877.7373c.0184,1.5475-.0044,3.0956.0076,4.6431,2.6775-.29,5.2323-1.2981,7.9281-1.4588a7.8055,7.8055,0,0,1,4.1016.7635q-.0294,13.135-.0031,26.27a8.9014,8.9014,0,0,0-5.0469-.6761c-2.4744.3355-4.852,1.2253-7.3529,1.3931a8.2677,8.2677,0,0,1-4.1782-.7291c-.0178-1.5475.0031-3.0949-.007-4.6424-2.26.2271-4.4249.983-6.6684,1.3108a9.7313,9.7313,0,0,1-4.4015-.1614c-.3879-.0969-.7491-.2711-1.1243-.405q-.0208-.7855-.0171-1.57c.0114-8.233-.0133-16.4666.012-24.7q.354.1139.6979.257a9.4853,9.4853,0,0,0,3.8834.4357C16.9985,9.35,19.6652,8.2557,22.49,8.1556Z" fill="#fff"/><path d="M21.8163,34.4562a11.6756,11.6756,0,0,1,2.8516.23,10.9379,10.9379,0,0,1,1.7005.5256l-.0053.0642a1.3229,1.3229,0,0,1-.2149.5028A8.0527,8.0527,0,0,1,24.1817,37.63a20.2764,20.2764,0,0,1-2.3584,1.4683C21.8059,37.5711,21.815,35.9837,21.8163,34.4562Z" fill="#d2d3d5"/></svg>