<svg enable-background="new 0 0 48 48" viewBox="0 0 48 48" xmlns="http://www.w3.org/2000/svg"><path d="m5 43c-3.7-3.7-5-9.7-5-19s1.4-15.3 5-19 9.7-5 19-5 15.3 1.4 19 5 5 9.7 5 19-1.4 15.3-5 19-9.7 5-19 5-15.3-1.4-19-5z" fill="#1ed760"/><g fill="#fff"><path d="m35.5 34.9c-.4.7-1.4 1-2.1.5-5.8-3.5-13-4.3-21.6-2.4-.8.2-1.6-.3-1.8-1.2-.2-.8.3-1.6 1.2-1.8 9.4-2.1 17.4-1.2 23.9 2.7.7.5.9 1.4.4 2.2z"/><path d="m38.5 28.2c-.6.9-1.7 1.2-2.6.6-6.6-4.1-16.7-5.2-24.5-2.9-1 .3-2.1-.3-2.4-1.3s.3-2.1 1.3-2.4c8.9-2.7 20-1.4 27.6 3.3.9.6 1.2 1.8.6 2.7z"/><path d="m38.8 21.2c-7.9-4.7-21-5.1-28.6-2.8-1.2.3-2.5-.4-2.8-1.6-.4-1.2.3-2.5 1.5-2.9 8.7-2.6 23.1-2.1 32.3 3.3 1.1.6 1.5 2.1.8 3.2s-2.1 1.4-3.2.8z"/></g></svg>